<svg xmlns="http://www.w3.org/2000/svg" width="1152" height="560" viewBox="0 0 1152 560">
    <g fill="none" fill-rule="evenodd">
        <g>
            <path fill="#FFF" d="M0 0H1440V1486H0z" transform="translate(-123 -98)"/>
            <g>
                <path fill="#388AF7" d="M968.873 656.551c100.586 0 182.127-81.421 182.127-181.86 0-100.438-75.847-266.451-176.433-266.451S672 487.198 672 587.637c0 100.438 196.287 68.914 296.873 68.914z" transform="translate(-123 -98) translate(123.086 -4.234)"/>
                <path fill="#DEECFF" d="M308.004 597.886C417.2 597.886 520 527.674 520 418.54c0-109.135-239.39-199.353-348.586-199.353C62.218 219.187 0 432.13 0 541.264c0 109.135 198.808 56.622 308.004 56.622z" transform="translate(-123 -98) translate(123.086 -4.234)"/>
                <path fill="#8FE2FA" d="M895.496 480.722c91.556 0 165.778-74.3 165.778-165.955C1061.274 223.113 892.38 97 800.824 97c-91.556 0-175.55 229.18-175.55 320.834 0 91.655 178.665 62.888 270.222 62.888z" opacity=".241" transform="translate(-123 -98) translate(123.086 -4.234) rotate(53 843.274 291)"/>
                <text fill="#B4B4B4" font-family="Rubik-Regular, Rubik" font-size="18" transform="translate(-123 -98) translate(123.086 -4.234)">
                    <tspan x="58.914" y="417.234">The Palette DeFi protocol realigns incentives for network </tspan> <tspan x="58.914" y="443.234">participants by introducing revenue sharing and forum-</tspan> <tspan x="58.914" y="469.234">driven network efforts to the popular AMM model</tspan>
                </text>
                <text font-family="Nunito-ExtraBold, Nunito" font-size="60" font-weight="700" letter-spacing="-1.5" transform="translate(-123 -98) translate(123.086 -4.234)">
                    <tspan x="55.914" y="309.234" fill="#2C2C2C">Everyone can be a </tspan> <tspan x="55.914" y="369.234" fill="#2C2C2C">Painter with </tspan> <tspan x="403.794" y="369.234" fill="#388AF7">Palette DeFi</tspan>
                </text>
            </g>
        </g>
    </g>
</svg>
